<mxfile host="Electron" agent="Mozilla/5.0 (Windows NT 10.0; Win64; x64) AppleWebKit/537.36 (KHTML, like Gecko) draw.io/25.0.2 Chrome/128.0.6613.186 Electron/32.2.5 Safari/537.36" version="25.0.2">
  <diagram name="Страница — 1" id="7tdoHnyMfGlabLEgPhno">
    <mxGraphModel dx="1926" dy="1003" grid="1" gridSize="10" guides="1" tooltips="1" connect="1" arrows="1" fold="1" page="1" pageScale="1" pageWidth="1169" pageHeight="827" math="0" shadow="0">
      <root>
        <mxCell id="0" />
        <mxCell id="1" parent="0" />
        <mxCell id="VCUwvyoGhLZvTzWhiSm4-7" style="edgeStyle=orthogonalEdgeStyle;rounded=0;orthogonalLoop=1;jettySize=auto;html=1;exitX=0.5;exitY=1;exitDx=0;exitDy=0;exitPerimeter=0;entryX=0.5;entryY=0;entryDx=0;entryDy=0;" parent="1" source="VCUwvyoGhLZvTzWhiSm4-1" target="VCUwvyoGhLZvTzWhiSm4-6" edge="1">
          <mxGeometry relative="1" as="geometry" />
        </mxCell>
        <mxCell id="VCUwvyoGhLZvTzWhiSm4-1" value="Начало" style="strokeWidth=2;html=1;shape=mxgraph.flowchart.start_1;whiteSpace=wrap;" parent="1" vertex="1">
          <mxGeometry x="535" y="10" width="100" height="60" as="geometry" />
        </mxCell>
        <mxCell id="VCUwvyoGhLZvTzWhiSm4-2" style="edgeStyle=orthogonalEdgeStyle;rounded=0;orthogonalLoop=1;jettySize=auto;html=1;exitX=0.5;exitY=1;exitDx=0;exitDy=0;exitPerimeter=0;" parent="1" source="VCUwvyoGhLZvTzWhiSm4-1" target="VCUwvyoGhLZvTzWhiSm4-1" edge="1">
          <mxGeometry relative="1" as="geometry" />
        </mxCell>
        <mxCell id="VCUwvyoGhLZvTzWhiSm4-3" value="" style="strokeWidth=2;html=1;shape=mxgraph.flowchart.annotation_2;align=left;labelPosition=right;pointerEvents=1;" parent="1" vertex="1">
          <mxGeometry x="630" y="30" width="50" height="100" as="geometry" />
        </mxCell>
        <mxCell id="VCUwvyoGhLZvTzWhiSm4-4" value="" style="endArrow=none;dashed=1;html=1;rounded=0;entryX=0;entryY=0.5;entryDx=0;entryDy=0;entryPerimeter=0;exitX=0.5;exitY=1;exitDx=0;exitDy=0;exitPerimeter=0;" parent="1" source="VCUwvyoGhLZvTzWhiSm4-1" target="VCUwvyoGhLZvTzWhiSm4-3" edge="1">
          <mxGeometry width="50" height="50" relative="1" as="geometry">
            <mxPoint x="580" y="160" as="sourcePoint" />
            <mxPoint x="630" y="110" as="targetPoint" />
            <Array as="points">
              <mxPoint x="585" y="80" />
            </Array>
          </mxGeometry>
        </mxCell>
        <mxCell id="VCUwvyoGhLZvTzWhiSm4-5" value="&lt;div&gt;#include &amp;lt;iostream&amp;gt;&lt;/div&gt;&lt;div&gt;using namespace std;&lt;/div&gt;&lt;div&gt;&lt;div&gt;const int N = 8;&lt;/div&gt;&lt;div&gt;int board[N][N];&lt;/div&gt;&lt;div&gt;int solutionsCount = 0;&lt;/div&gt;&lt;/div&gt;" style="text;html=1;align=center;verticalAlign=middle;resizable=0;points=[];autosize=1;strokeColor=none;fillColor=none;" parent="1" vertex="1">
          <mxGeometry x="660" y="30" width="140" height="90" as="geometry" />
        </mxCell>
        <mxCell id="VCUwvyoGhLZvTzWhiSm4-10" style="edgeStyle=orthogonalEdgeStyle;rounded=0;orthogonalLoop=1;jettySize=auto;html=1;exitX=0.5;exitY=1;exitDx=0;exitDy=0;entryX=0.5;entryY=0;entryDx=0;entryDy=0;" parent="1" source="VCUwvyoGhLZvTzWhiSm4-6" target="VCUwvyoGhLZvTzWhiSm4-8" edge="1">
          <mxGeometry relative="1" as="geometry" />
        </mxCell>
        <mxCell id="VCUwvyoGhLZvTzWhiSm4-6" value="int main()" style="shape=process;whiteSpace=wrap;html=1;backgroundOutline=1;" parent="1" vertex="1">
          <mxGeometry x="525" y="100" width="120" height="60" as="geometry" />
        </mxCell>
        <mxCell id="VCUwvyoGhLZvTzWhiSm4-8" value="solveNQueens();" style="rounded=0;whiteSpace=wrap;html=1;" parent="1" vertex="1">
          <mxGeometry x="525" y="180" width="120" height="60" as="geometry" />
        </mxCell>
        <mxCell id="VCUwvyoGhLZvTzWhiSm4-9" value="return 0;" style="strokeWidth=2;html=1;shape=mxgraph.flowchart.start_1;whiteSpace=wrap;" parent="1" vertex="1">
          <mxGeometry x="535" y="260" width="100" height="60" as="geometry" />
        </mxCell>
        <mxCell id="VCUwvyoGhLZvTzWhiSm4-11" style="edgeStyle=orthogonalEdgeStyle;rounded=0;orthogonalLoop=1;jettySize=auto;html=1;exitX=0.5;exitY=1;exitDx=0;exitDy=0;entryX=0.5;entryY=0;entryDx=0;entryDy=0;entryPerimeter=0;" parent="1" source="VCUwvyoGhLZvTzWhiSm4-8" target="VCUwvyoGhLZvTzWhiSm4-9" edge="1">
          <mxGeometry relative="1" as="geometry" />
        </mxCell>
        <mxCell id="VCUwvyoGhLZvTzWhiSm4-15" style="edgeStyle=orthogonalEdgeStyle;rounded=0;orthogonalLoop=1;jettySize=auto;html=1;exitX=0.5;exitY=1;exitDx=0;exitDy=0;entryX=0.5;entryY=0;entryDx=0;entryDy=0;" parent="1" source="VCUwvyoGhLZvTzWhiSm4-13" target="VCUwvyoGhLZvTzWhiSm4-14" edge="1">
          <mxGeometry relative="1" as="geometry" />
        </mxCell>
        <mxCell id="VCUwvyoGhLZvTzWhiSm4-13" value="void solveNQueens()" style="shape=process;whiteSpace=wrap;html=1;backgroundOutline=1;" parent="1" vertex="1">
          <mxGeometry x="210" y="100" width="120" height="60" as="geometry" />
        </mxCell>
        <mxCell id="VCUwvyoGhLZvTzWhiSm4-17" style="edgeStyle=orthogonalEdgeStyle;rounded=0;orthogonalLoop=1;jettySize=auto;html=1;exitX=0.5;exitY=1;exitDx=0;exitDy=0;entryX=0.5;entryY=0;entryDx=0;entryDy=0;" parent="1" source="VCUwvyoGhLZvTzWhiSm4-14" target="VCUwvyoGhLZvTzWhiSm4-16" edge="1">
          <mxGeometry relative="1" as="geometry" />
        </mxCell>
        <mxCell id="VCUwvyoGhLZvTzWhiSm4-23" style="edgeStyle=orthogonalEdgeStyle;rounded=0;orthogonalLoop=1;jettySize=auto;html=1;exitX=1;exitY=0.5;exitDx=0;exitDy=0;entryX=0.5;entryY=0;entryDx=0;entryDy=0;" parent="1" source="VCUwvyoGhLZvTzWhiSm4-14" target="VCUwvyoGhLZvTzWhiSm4-22" edge="1">
          <mxGeometry relative="1" as="geometry" />
        </mxCell>
        <mxCell id="VCUwvyoGhLZvTzWhiSm4-14" value="for (int i = 0; i &lt; N; ++i)" style="shape=hexagon;perimeter=hexagonPerimeter2;whiteSpace=wrap;html=1;fixedSize=1;" parent="1" vertex="1">
          <mxGeometry x="210" y="180" width="120" height="80" as="geometry" />
        </mxCell>
        <mxCell id="VCUwvyoGhLZvTzWhiSm4-19" style="edgeStyle=orthogonalEdgeStyle;rounded=0;orthogonalLoop=1;jettySize=auto;html=1;exitX=0.5;exitY=1;exitDx=0;exitDy=0;entryX=0.5;entryY=0;entryDx=0;entryDy=0;" parent="1" source="VCUwvyoGhLZvTzWhiSm4-16" target="VCUwvyoGhLZvTzWhiSm4-18" edge="1">
          <mxGeometry relative="1" as="geometry" />
        </mxCell>
        <mxCell id="VCUwvyoGhLZvTzWhiSm4-21" style="edgeStyle=orthogonalEdgeStyle;rounded=0;orthogonalLoop=1;jettySize=auto;html=1;exitX=1;exitY=0.5;exitDx=0;exitDy=0;entryX=0;entryY=0.5;entryDx=0;entryDy=0;" parent="1" source="VCUwvyoGhLZvTzWhiSm4-16" target="VCUwvyoGhLZvTzWhiSm4-14" edge="1">
          <mxGeometry relative="1" as="geometry">
            <Array as="points">
              <mxPoint x="350" y="320" />
              <mxPoint x="350" y="490" />
              <mxPoint x="170" y="490" />
              <mxPoint x="170" y="220" />
            </Array>
          </mxGeometry>
        </mxCell>
        <mxCell id="VCUwvyoGhLZvTzWhiSm4-16" value="for (int j = 0; j &amp;lt; N; ++j)" style="shape=hexagon;perimeter=hexagonPerimeter2;whiteSpace=wrap;html=1;fixedSize=1;" parent="1" vertex="1">
          <mxGeometry x="210" y="280" width="120" height="80" as="geometry" />
        </mxCell>
        <mxCell id="VCUwvyoGhLZvTzWhiSm4-20" style="edgeStyle=orthogonalEdgeStyle;rounded=0;orthogonalLoop=1;jettySize=auto;html=1;exitX=0.5;exitY=1;exitDx=0;exitDy=0;entryX=0;entryY=0.5;entryDx=0;entryDy=0;" parent="1" source="VCUwvyoGhLZvTzWhiSm4-18" target="VCUwvyoGhLZvTzWhiSm4-16" edge="1">
          <mxGeometry relative="1" as="geometry" />
        </mxCell>
        <mxCell id="VCUwvyoGhLZvTzWhiSm4-18" value="board[i][j] = 0;" style="rounded=0;whiteSpace=wrap;html=1;" parent="1" vertex="1">
          <mxGeometry x="210" y="380" width="120" height="60" as="geometry" />
        </mxCell>
        <mxCell id="VCUwvyoGhLZvTzWhiSm4-22" value="solveNQueensUtil(0);" style="rounded=0;whiteSpace=wrap;html=1;" parent="1" vertex="1">
          <mxGeometry x="365" y="430" width="120" height="60" as="geometry" />
        </mxCell>
        <mxCell id="VCUwvyoGhLZvTzWhiSm4-26" style="edgeStyle=orthogonalEdgeStyle;rounded=0;orthogonalLoop=1;jettySize=auto;html=1;exitX=0.5;exitY=1;exitDx=0;exitDy=0;entryX=0.5;entryY=0;entryDx=0;entryDy=0;" parent="1" source="VCUwvyoGhLZvTzWhiSm4-24" target="VCUwvyoGhLZvTzWhiSm4-25" edge="1">
          <mxGeometry relative="1" as="geometry" />
        </mxCell>
        <mxCell id="VCUwvyoGhLZvTzWhiSm4-24" value="void solveNQueensUtil(int row)" style="shape=process;whiteSpace=wrap;html=1;backgroundOutline=1;" parent="1" vertex="1">
          <mxGeometry x="-70" y="100" width="120" height="60" as="geometry" />
        </mxCell>
        <mxCell id="VCUwvyoGhLZvTzWhiSm4-28" style="edgeStyle=orthogonalEdgeStyle;rounded=0;orthogonalLoop=1;jettySize=auto;html=1;exitX=0;exitY=0.5;exitDx=0;exitDy=0;entryX=0.5;entryY=0;entryDx=0;entryDy=0;" parent="1" source="VCUwvyoGhLZvTzWhiSm4-25" target="VCUwvyoGhLZvTzWhiSm4-27" edge="1">
          <mxGeometry relative="1" as="geometry" />
        </mxCell>
        <mxCell id="VCUwvyoGhLZvTzWhiSm4-32" style="edgeStyle=orthogonalEdgeStyle;rounded=0;orthogonalLoop=1;jettySize=auto;html=1;exitX=1;exitY=0.5;exitDx=0;exitDy=0;" parent="1" source="VCUwvyoGhLZvTzWhiSm4-25" edge="1">
          <mxGeometry relative="1" as="geometry">
            <mxPoint x="-10" y="410" as="targetPoint" />
            <Array as="points">
              <mxPoint x="70" y="205" />
              <mxPoint x="70" y="410" />
            </Array>
          </mxGeometry>
        </mxCell>
        <mxCell id="VCUwvyoGhLZvTzWhiSm4-25" value="if (row &amp;gt;= N)" style="rhombus;whiteSpace=wrap;html=1;" parent="1" vertex="1">
          <mxGeometry x="-50" y="180" width="80" height="50" as="geometry" />
        </mxCell>
        <mxCell id="VCUwvyoGhLZvTzWhiSm4-27" value="printSolution();" style="rounded=0;whiteSpace=wrap;html=1;" parent="1" vertex="1">
          <mxGeometry x="-160" y="250" width="120" height="60" as="geometry" />
        </mxCell>
        <mxCell id="VCUwvyoGhLZvTzWhiSm4-31" style="edgeStyle=orthogonalEdgeStyle;rounded=0;orthogonalLoop=1;jettySize=auto;html=1;exitX=0.5;exitY=1;exitDx=0;exitDy=0;exitPerimeter=0;" parent="1" source="VCUwvyoGhLZvTzWhiSm4-29" edge="1">
          <mxGeometry relative="1" as="geometry">
            <mxPoint x="-10" y="410" as="targetPoint" />
            <Array as="points">
              <mxPoint x="-100" y="410" />
            </Array>
          </mxGeometry>
        </mxCell>
        <mxCell id="VCUwvyoGhLZvTzWhiSm4-29" value="return;" style="strokeWidth=2;html=1;shape=mxgraph.flowchart.start_1;whiteSpace=wrap;" parent="1" vertex="1">
          <mxGeometry x="-150" y="330" width="100" height="60" as="geometry" />
        </mxCell>
        <mxCell id="VCUwvyoGhLZvTzWhiSm4-30" style="edgeStyle=orthogonalEdgeStyle;rounded=0;orthogonalLoop=1;jettySize=auto;html=1;exitX=0.5;exitY=1;exitDx=0;exitDy=0;entryX=0.5;entryY=0;entryDx=0;entryDy=0;entryPerimeter=0;" parent="1" source="VCUwvyoGhLZvTzWhiSm4-27" target="VCUwvyoGhLZvTzWhiSm4-29" edge="1">
          <mxGeometry relative="1" as="geometry" />
        </mxCell>
        <mxCell id="VCUwvyoGhLZvTzWhiSm4-36" style="edgeStyle=orthogonalEdgeStyle;rounded=0;orthogonalLoop=1;jettySize=auto;html=1;exitX=0.5;exitY=1;exitDx=0;exitDy=0;entryX=0.5;entryY=0;entryDx=0;entryDy=0;" parent="1" source="VCUwvyoGhLZvTzWhiSm4-33" target="VCUwvyoGhLZvTzWhiSm4-35" edge="1">
          <mxGeometry relative="1" as="geometry" />
        </mxCell>
        <mxCell id="VCUwvyoGhLZvTzWhiSm4-33" value="for (int col = 0; col &amp;lt; N; ++col)" style="shape=hexagon;perimeter=hexagonPerimeter2;whiteSpace=wrap;html=1;fixedSize=1;" parent="1" vertex="1">
          <mxGeometry x="-70" y="430" width="120" height="80" as="geometry" />
        </mxCell>
        <mxCell id="VCUwvyoGhLZvTzWhiSm4-34" value="" style="endArrow=classic;html=1;rounded=0;entryX=0.5;entryY=0;entryDx=0;entryDy=0;" parent="1" target="VCUwvyoGhLZvTzWhiSm4-33" edge="1">
          <mxGeometry width="50" height="50" relative="1" as="geometry">
            <mxPoint x="-10" y="410" as="sourcePoint" />
            <mxPoint x="40" y="360" as="targetPoint" />
          </mxGeometry>
        </mxCell>
        <mxCell id="VCUwvyoGhLZvTzWhiSm4-38" style="edgeStyle=orthogonalEdgeStyle;rounded=0;orthogonalLoop=1;jettySize=auto;html=1;exitX=0;exitY=0.5;exitDx=0;exitDy=0;entryX=0.5;entryY=0;entryDx=0;entryDy=0;" parent="1" source="VCUwvyoGhLZvTzWhiSm4-35" target="VCUwvyoGhLZvTzWhiSm4-37" edge="1">
          <mxGeometry relative="1" as="geometry" />
        </mxCell>
        <mxCell id="VCUwvyoGhLZvTzWhiSm4-40" style="edgeStyle=orthogonalEdgeStyle;rounded=0;orthogonalLoop=1;jettySize=auto;html=1;exitX=1;exitY=0.5;exitDx=0;exitDy=0;" parent="1" source="VCUwvyoGhLZvTzWhiSm4-35" edge="1">
          <mxGeometry relative="1" as="geometry">
            <mxPoint x="-10" y="670" as="targetPoint" />
            <Array as="points">
              <mxPoint x="50" y="555" />
              <mxPoint x="50" y="670" />
            </Array>
          </mxGeometry>
        </mxCell>
        <mxCell id="VCUwvyoGhLZvTzWhiSm4-35" value="if (isSafe(row, col))" style="rhombus;whiteSpace=wrap;html=1;" parent="1" vertex="1">
          <mxGeometry x="-50" y="530" width="80" height="50" as="geometry" />
        </mxCell>
        <mxCell id="VCUwvyoGhLZvTzWhiSm4-39" style="edgeStyle=orthogonalEdgeStyle;rounded=0;orthogonalLoop=1;jettySize=auto;html=1;exitX=0.5;exitY=1;exitDx=0;exitDy=0;" parent="1" source="VCUwvyoGhLZvTzWhiSm4-37" edge="1">
          <mxGeometry relative="1" as="geometry">
            <mxPoint x="-10" y="670" as="targetPoint" />
            <Array as="points">
              <mxPoint x="-110" y="670" />
            </Array>
          </mxGeometry>
        </mxCell>
        <mxCell id="VCUwvyoGhLZvTzWhiSm4-37" value="&lt;div&gt;board[row][col] = 1;&lt;/div&gt;&lt;div&gt;solveNQueensUtil(row + 1);&lt;/div&gt;&lt;div&gt;board[row][col] = 0;&lt;/div&gt;" style="rounded=0;whiteSpace=wrap;html=1;align=left;" parent="1" vertex="1">
          <mxGeometry x="-170" y="590" width="120" height="60" as="geometry" />
        </mxCell>
        <mxCell id="VCUwvyoGhLZvTzWhiSm4-41" value="" style="endArrow=classic;html=1;rounded=0;entryX=0;entryY=0.5;entryDx=0;entryDy=0;" parent="1" target="VCUwvyoGhLZvTzWhiSm4-33" edge="1">
          <mxGeometry width="50" height="50" relative="1" as="geometry">
            <mxPoint x="-10" y="670" as="sourcePoint" />
            <mxPoint x="40" y="610" as="targetPoint" />
            <Array as="points">
              <mxPoint x="-10" y="690" />
              <mxPoint x="-180" y="690" />
              <mxPoint x="-180" y="470" />
            </Array>
          </mxGeometry>
        </mxCell>
        <mxCell id="VCUwvyoGhLZvTzWhiSm4-46" style="edgeStyle=orthogonalEdgeStyle;rounded=0;orthogonalLoop=1;jettySize=auto;html=1;exitX=0.5;exitY=1;exitDx=0;exitDy=0;entryX=0.5;entryY=0;entryDx=0;entryDy=0;" parent="1" source="VCUwvyoGhLZvTzWhiSm4-42" target="VCUwvyoGhLZvTzWhiSm4-43" edge="1">
          <mxGeometry relative="1" as="geometry" />
        </mxCell>
        <mxCell id="VCUwvyoGhLZvTzWhiSm4-42" value="void printSolution()" style="shape=process;whiteSpace=wrap;html=1;backgroundOutline=1;" parent="1" vertex="1">
          <mxGeometry x="-710" y="100" width="120" height="60" as="geometry" />
        </mxCell>
        <mxCell id="VCUwvyoGhLZvTzWhiSm4-47" style="edgeStyle=orthogonalEdgeStyle;rounded=0;orthogonalLoop=1;jettySize=auto;html=1;exitX=0.5;exitY=1;exitDx=0;exitDy=0;entryX=0.5;entryY=0;entryDx=0;entryDy=0;" parent="1" source="VCUwvyoGhLZvTzWhiSm4-43" target="VCUwvyoGhLZvTzWhiSm4-44" edge="1">
          <mxGeometry relative="1" as="geometry" />
        </mxCell>
        <mxCell id="VCUwvyoGhLZvTzWhiSm4-43" value="setlocale(LC_ALL, &quot;ru&quot;);" style="rounded=0;whiteSpace=wrap;html=1;" parent="1" vertex="1">
          <mxGeometry x="-710" y="175" width="120" height="60" as="geometry" />
        </mxCell>
        <mxCell id="VCUwvyoGhLZvTzWhiSm4-48" style="edgeStyle=orthogonalEdgeStyle;rounded=0;orthogonalLoop=1;jettySize=auto;html=1;exitX=0.5;exitY=1;exitDx=0;exitDy=0;entryX=0.5;entryY=0;entryDx=0;entryDy=0;" parent="1" source="VCUwvyoGhLZvTzWhiSm4-44" target="VCUwvyoGhLZvTzWhiSm4-45" edge="1">
          <mxGeometry relative="1" as="geometry" />
        </mxCell>
        <mxCell id="VCUwvyoGhLZvTzWhiSm4-44" value="cout &amp;lt;&amp;lt; &quot;Решение &quot; &amp;lt;&amp;lt; ++solutionsCount &amp;lt;&amp;lt; &quot;:&quot; &amp;lt;&amp;lt; endl;" style="shape=parallelogram;perimeter=parallelogramPerimeter;whiteSpace=wrap;html=1;fixedSize=1;" parent="1" vertex="1">
          <mxGeometry x="-710" y="260" width="120" height="60" as="geometry" />
        </mxCell>
        <mxCell id="VCUwvyoGhLZvTzWhiSm4-50" style="edgeStyle=orthogonalEdgeStyle;rounded=0;orthogonalLoop=1;jettySize=auto;html=1;exitX=0.5;exitY=1;exitDx=0;exitDy=0;entryX=0.5;entryY=0;entryDx=0;entryDy=0;" parent="1" source="VCUwvyoGhLZvTzWhiSm4-45" target="VCUwvyoGhLZvTzWhiSm4-49" edge="1">
          <mxGeometry relative="1" as="geometry" />
        </mxCell>
        <mxCell id="31v7jMnxDXzGjl-zNSFE-6" style="edgeStyle=orthogonalEdgeStyle;rounded=0;orthogonalLoop=1;jettySize=auto;html=1;exitX=1;exitY=0.5;exitDx=0;exitDy=0;entryX=0.5;entryY=0;entryDx=0;entryDy=0;" edge="1" parent="1" source="VCUwvyoGhLZvTzWhiSm4-45" target="31v7jMnxDXzGjl-zNSFE-5">
          <mxGeometry relative="1" as="geometry" />
        </mxCell>
        <mxCell id="VCUwvyoGhLZvTzWhiSm4-45" value="for (int i = 0; i &amp;lt; N; ++i)" style="shape=hexagon;perimeter=hexagonPerimeter2;whiteSpace=wrap;html=1;fixedSize=1;" parent="1" vertex="1">
          <mxGeometry x="-710" y="334" width="120" height="80" as="geometry" />
        </mxCell>
        <mxCell id="VCUwvyoGhLZvTzWhiSm4-52" style="edgeStyle=orthogonalEdgeStyle;rounded=0;orthogonalLoop=1;jettySize=auto;html=1;exitX=0.5;exitY=1;exitDx=0;exitDy=0;entryX=0.5;entryY=0;entryDx=0;entryDy=0;" parent="1" source="VCUwvyoGhLZvTzWhiSm4-49" target="VCUwvyoGhLZvTzWhiSm4-51" edge="1">
          <mxGeometry relative="1" as="geometry" />
        </mxCell>
        <mxCell id="31v7jMnxDXzGjl-zNSFE-3" style="edgeStyle=orthogonalEdgeStyle;rounded=0;orthogonalLoop=1;jettySize=auto;html=1;exitX=1;exitY=0.5;exitDx=0;exitDy=0;entryX=0.5;entryY=0;entryDx=0;entryDy=0;" edge="1" parent="1" source="VCUwvyoGhLZvTzWhiSm4-49" target="31v7jMnxDXzGjl-zNSFE-2">
          <mxGeometry relative="1" as="geometry" />
        </mxCell>
        <mxCell id="VCUwvyoGhLZvTzWhiSm4-49" value="for (int j = 0; j &amp;lt; N; ++j)" style="shape=hexagon;perimeter=hexagonPerimeter2;whiteSpace=wrap;html=1;fixedSize=1;" parent="1" vertex="1">
          <mxGeometry x="-710" y="430" width="120" height="80" as="geometry" />
        </mxCell>
        <mxCell id="VCUwvyoGhLZvTzWhiSm4-55" style="edgeStyle=orthogonalEdgeStyle;rounded=0;orthogonalLoop=1;jettySize=auto;html=1;exitX=0;exitY=0.5;exitDx=0;exitDy=0;entryX=0.5;entryY=0;entryDx=0;entryDy=0;" parent="1" source="VCUwvyoGhLZvTzWhiSm4-51" target="VCUwvyoGhLZvTzWhiSm4-53" edge="1">
          <mxGeometry relative="1" as="geometry" />
        </mxCell>
        <mxCell id="VCUwvyoGhLZvTzWhiSm4-56" style="edgeStyle=orthogonalEdgeStyle;rounded=0;orthogonalLoop=1;jettySize=auto;html=1;exitX=1;exitY=0.5;exitDx=0;exitDy=0;entryX=0.5;entryY=0;entryDx=0;entryDy=0;" parent="1" source="VCUwvyoGhLZvTzWhiSm4-51" target="VCUwvyoGhLZvTzWhiSm4-54" edge="1">
          <mxGeometry relative="1" as="geometry" />
        </mxCell>
        <mxCell id="VCUwvyoGhLZvTzWhiSm4-51" value="if (board[i][j] == 1)" style="rhombus;whiteSpace=wrap;html=1;" parent="1" vertex="1">
          <mxGeometry x="-690" y="530" width="80" height="50" as="geometry" />
        </mxCell>
        <mxCell id="VCUwvyoGhLZvTzWhiSm4-57" style="edgeStyle=orthogonalEdgeStyle;rounded=0;orthogonalLoop=1;jettySize=auto;html=1;exitX=0.5;exitY=1;exitDx=0;exitDy=0;" parent="1" source="VCUwvyoGhLZvTzWhiSm4-53" edge="1">
          <mxGeometry relative="1" as="geometry">
            <mxPoint x="-650" y="670" as="targetPoint" />
            <Array as="points">
              <mxPoint x="-740" y="670" />
            </Array>
          </mxGeometry>
        </mxCell>
        <mxCell id="VCUwvyoGhLZvTzWhiSm4-53" value="cout &amp;lt;&amp;lt; &quot;Q &quot;;" style="shape=parallelogram;perimeter=parallelogramPerimeter;whiteSpace=wrap;html=1;fixedSize=1;" parent="1" vertex="1">
          <mxGeometry x="-800" y="590" width="120" height="60" as="geometry" />
        </mxCell>
        <mxCell id="VCUwvyoGhLZvTzWhiSm4-58" style="edgeStyle=orthogonalEdgeStyle;rounded=0;orthogonalLoop=1;jettySize=auto;html=1;exitX=0.5;exitY=1;exitDx=0;exitDy=0;" parent="1" source="VCUwvyoGhLZvTzWhiSm4-54" edge="1">
          <mxGeometry relative="1" as="geometry">
            <mxPoint x="-650" y="670" as="targetPoint" />
            <Array as="points">
              <mxPoint x="-550" y="670" />
            </Array>
          </mxGeometry>
        </mxCell>
        <mxCell id="VCUwvyoGhLZvTzWhiSm4-54" value="cout &amp;lt;&amp;lt; &quot;. &quot;;" style="shape=parallelogram;perimeter=parallelogramPerimeter;whiteSpace=wrap;html=1;fixedSize=1;" parent="1" vertex="1">
          <mxGeometry x="-610" y="590" width="120" height="60" as="geometry" />
        </mxCell>
        <mxCell id="31v7jMnxDXzGjl-zNSFE-1" value="" style="endArrow=classic;html=1;rounded=0;entryX=0;entryY=0.5;entryDx=0;entryDy=0;" edge="1" parent="1" target="VCUwvyoGhLZvTzWhiSm4-49">
          <mxGeometry width="50" height="50" relative="1" as="geometry">
            <mxPoint x="-650" y="670" as="sourcePoint" />
            <mxPoint x="-600" y="620" as="targetPoint" />
            <Array as="points">
              <mxPoint x="-650" y="720" />
              <mxPoint x="-820" y="720" />
              <mxPoint x="-820" y="600" />
              <mxPoint x="-820" y="470" />
            </Array>
          </mxGeometry>
        </mxCell>
        <mxCell id="31v7jMnxDXzGjl-zNSFE-4" style="edgeStyle=orthogonalEdgeStyle;rounded=0;orthogonalLoop=1;jettySize=auto;html=1;exitX=0.5;exitY=1;exitDx=0;exitDy=0;entryX=0;entryY=0.5;entryDx=0;entryDy=0;" edge="1" parent="1" source="31v7jMnxDXzGjl-zNSFE-2" target="VCUwvyoGhLZvTzWhiSm4-45">
          <mxGeometry relative="1" as="geometry">
            <Array as="points">
              <mxPoint x="-420" y="750" />
              <mxPoint x="-850" y="750" />
              <mxPoint x="-850" y="374" />
            </Array>
          </mxGeometry>
        </mxCell>
        <mxCell id="31v7jMnxDXzGjl-zNSFE-2" value="cout &amp;lt;&amp;lt; endl;" style="shape=parallelogram;perimeter=parallelogramPerimeter;whiteSpace=wrap;html=1;fixedSize=1;" vertex="1" parent="1">
          <mxGeometry x="-480" y="590" width="120" height="60" as="geometry" />
        </mxCell>
        <mxCell id="31v7jMnxDXzGjl-zNSFE-5" value="cout &amp;lt;&amp;lt; endl;" style="shape=parallelogram;perimeter=parallelogramPerimeter;whiteSpace=wrap;html=1;fixedSize=1;" vertex="1" parent="1">
          <mxGeometry x="-390" y="780" width="120" height="60" as="geometry" />
        </mxCell>
        <mxCell id="31v7jMnxDXzGjl-zNSFE-10" style="edgeStyle=orthogonalEdgeStyle;rounded=0;orthogonalLoop=1;jettySize=auto;html=1;exitX=0.5;exitY=1;exitDx=0;exitDy=0;entryX=0.5;entryY=0;entryDx=0;entryDy=0;" edge="1" parent="1" source="31v7jMnxDXzGjl-zNSFE-7" target="31v7jMnxDXzGjl-zNSFE-8">
          <mxGeometry relative="1" as="geometry" />
        </mxCell>
        <mxCell id="31v7jMnxDXzGjl-zNSFE-7" value="bool isSafe(int row, int col)" style="shape=process;whiteSpace=wrap;html=1;backgroundOutline=1;" vertex="1" parent="1">
          <mxGeometry x="-1060" y="100" width="120" height="60" as="geometry" />
        </mxCell>
        <mxCell id="31v7jMnxDXzGjl-zNSFE-11" style="edgeStyle=orthogonalEdgeStyle;rounded=0;orthogonalLoop=1;jettySize=auto;html=1;exitX=0.5;exitY=1;exitDx=0;exitDy=0;entryX=0.5;entryY=0;entryDx=0;entryDy=0;" edge="1" parent="1" source="31v7jMnxDXzGjl-zNSFE-8" target="31v7jMnxDXzGjl-zNSFE-9">
          <mxGeometry relative="1" as="geometry" />
        </mxCell>
        <mxCell id="31v7jMnxDXzGjl-zNSFE-28" style="edgeStyle=orthogonalEdgeStyle;rounded=0;orthogonalLoop=1;jettySize=auto;html=1;exitX=1;exitY=0.5;exitDx=0;exitDy=0;entryX=0.5;entryY=0;entryDx=0;entryDy=0;" edge="1" parent="1" source="31v7jMnxDXzGjl-zNSFE-8" target="31v7jMnxDXzGjl-zNSFE-21">
          <mxGeometry relative="1" as="geometry">
            <Array as="points">
              <mxPoint x="-920" y="220" />
              <mxPoint x="-920" y="470" />
              <mxPoint x="-1000" y="470" />
            </Array>
          </mxGeometry>
        </mxCell>
        <mxCell id="31v7jMnxDXzGjl-zNSFE-8" value="for (int i = 0; i &amp;lt; row; ++i)" style="shape=hexagon;perimeter=hexagonPerimeter2;whiteSpace=wrap;html=1;fixedSize=1;" vertex="1" parent="1">
          <mxGeometry x="-1060" y="180" width="120" height="80" as="geometry" />
        </mxCell>
        <mxCell id="31v7jMnxDXzGjl-zNSFE-18" style="edgeStyle=orthogonalEdgeStyle;rounded=0;orthogonalLoop=1;jettySize=auto;html=1;exitX=1;exitY=0.5;exitDx=0;exitDy=0;" edge="1" parent="1" source="31v7jMnxDXzGjl-zNSFE-9">
          <mxGeometry relative="1" as="geometry">
            <mxPoint x="-1000" y="430" as="targetPoint" />
            <Array as="points">
              <mxPoint x="-940" y="305" />
              <mxPoint x="-940" y="430" />
            </Array>
          </mxGeometry>
        </mxCell>
        <mxCell id="31v7jMnxDXzGjl-zNSFE-9" value="if (board[i][col] == 1)" style="rhombus;whiteSpace=wrap;html=1;" vertex="1" parent="1">
          <mxGeometry x="-1040" y="280" width="80" height="50" as="geometry" />
        </mxCell>
        <mxCell id="31v7jMnxDXzGjl-zNSFE-17" style="edgeStyle=orthogonalEdgeStyle;rounded=0;orthogonalLoop=1;jettySize=auto;html=1;exitX=0.5;exitY=1;exitDx=0;exitDy=0;exitPerimeter=0;" edge="1" parent="1" source="31v7jMnxDXzGjl-zNSFE-13">
          <mxGeometry relative="1" as="geometry">
            <mxPoint x="-1000" y="430" as="targetPoint" />
            <Array as="points">
              <mxPoint x="-1090" y="430" />
            </Array>
          </mxGeometry>
        </mxCell>
        <mxCell id="31v7jMnxDXzGjl-zNSFE-13" value="return false;" style="strokeWidth=2;html=1;shape=mxgraph.flowchart.start_1;whiteSpace=wrap;" vertex="1" parent="1">
          <mxGeometry x="-1140" y="344" width="100" height="60" as="geometry" />
        </mxCell>
        <mxCell id="31v7jMnxDXzGjl-zNSFE-14" style="edgeStyle=orthogonalEdgeStyle;rounded=0;orthogonalLoop=1;jettySize=auto;html=1;exitX=0;exitY=0.5;exitDx=0;exitDy=0;entryX=0.5;entryY=0;entryDx=0;entryDy=0;entryPerimeter=0;" edge="1" parent="1" source="31v7jMnxDXzGjl-zNSFE-9" target="31v7jMnxDXzGjl-zNSFE-13">
          <mxGeometry relative="1" as="geometry" />
        </mxCell>
        <mxCell id="31v7jMnxDXzGjl-zNSFE-19" value="" style="endArrow=classic;html=1;rounded=0;entryX=0;entryY=0.5;entryDx=0;entryDy=0;" edge="1" parent="1" target="31v7jMnxDXzGjl-zNSFE-8">
          <mxGeometry width="50" height="50" relative="1" as="geometry">
            <mxPoint x="-1000" y="430" as="sourcePoint" />
            <mxPoint x="-950" y="380" as="targetPoint" />
            <Array as="points">
              <mxPoint x="-1000" y="450" />
              <mxPoint x="-1160" y="450" />
              <mxPoint x="-1160" y="220" />
            </Array>
          </mxGeometry>
        </mxCell>
        <mxCell id="31v7jMnxDXzGjl-zNSFE-20" style="edgeStyle=orthogonalEdgeStyle;rounded=0;orthogonalLoop=1;jettySize=auto;html=1;exitX=0.5;exitY=1;exitDx=0;exitDy=0;entryX=0.5;entryY=0;entryDx=0;entryDy=0;" edge="1" parent="1" source="31v7jMnxDXzGjl-zNSFE-21" target="31v7jMnxDXzGjl-zNSFE-23">
          <mxGeometry relative="1" as="geometry" />
        </mxCell>
        <mxCell id="31v7jMnxDXzGjl-zNSFE-37" style="edgeStyle=orthogonalEdgeStyle;rounded=0;orthogonalLoop=1;jettySize=auto;html=1;exitX=1;exitY=0.5;exitDx=0;exitDy=0;entryX=0.5;entryY=0;entryDx=0;entryDy=0;" edge="1" parent="1" source="31v7jMnxDXzGjl-zNSFE-21" target="31v7jMnxDXzGjl-zNSFE-30">
          <mxGeometry relative="1" as="geometry">
            <Array as="points">
              <mxPoint x="-920" y="525" />
              <mxPoint x="-920" y="770" />
              <mxPoint x="-1000" y="770" />
            </Array>
          </mxGeometry>
        </mxCell>
        <mxCell id="31v7jMnxDXzGjl-zNSFE-21" value="for (int i = row, j = col; i &amp;gt;= 0 &amp;amp;&amp;amp; j &amp;gt;= 0; --i, --j)" style="shape=hexagon;perimeter=hexagonPerimeter2;whiteSpace=wrap;html=1;fixedSize=1;" vertex="1" parent="1">
          <mxGeometry x="-1060" y="485" width="120" height="80" as="geometry" />
        </mxCell>
        <mxCell id="31v7jMnxDXzGjl-zNSFE-22" style="edgeStyle=orthogonalEdgeStyle;rounded=0;orthogonalLoop=1;jettySize=auto;html=1;exitX=1;exitY=0.5;exitDx=0;exitDy=0;" edge="1" parent="1" source="31v7jMnxDXzGjl-zNSFE-23">
          <mxGeometry relative="1" as="geometry">
            <mxPoint x="-1000" y="735" as="targetPoint" />
            <Array as="points">
              <mxPoint x="-940" y="610" />
              <mxPoint x="-940" y="735" />
            </Array>
          </mxGeometry>
        </mxCell>
        <mxCell id="31v7jMnxDXzGjl-zNSFE-23" value="if (board[i][j] == 1)" style="rhombus;whiteSpace=wrap;html=1;" vertex="1" parent="1">
          <mxGeometry x="-1040" y="585" width="80" height="50" as="geometry" />
        </mxCell>
        <mxCell id="31v7jMnxDXzGjl-zNSFE-24" style="edgeStyle=orthogonalEdgeStyle;rounded=0;orthogonalLoop=1;jettySize=auto;html=1;exitX=0.5;exitY=1;exitDx=0;exitDy=0;exitPerimeter=0;" edge="1" parent="1" source="31v7jMnxDXzGjl-zNSFE-25">
          <mxGeometry relative="1" as="geometry">
            <mxPoint x="-1000" y="735" as="targetPoint" />
            <Array as="points">
              <mxPoint x="-1090" y="735" />
            </Array>
          </mxGeometry>
        </mxCell>
        <mxCell id="31v7jMnxDXzGjl-zNSFE-25" value="return false;" style="strokeWidth=2;html=1;shape=mxgraph.flowchart.start_1;whiteSpace=wrap;" vertex="1" parent="1">
          <mxGeometry x="-1140" y="649" width="100" height="60" as="geometry" />
        </mxCell>
        <mxCell id="31v7jMnxDXzGjl-zNSFE-26" style="edgeStyle=orthogonalEdgeStyle;rounded=0;orthogonalLoop=1;jettySize=auto;html=1;exitX=0;exitY=0.5;exitDx=0;exitDy=0;entryX=0.5;entryY=0;entryDx=0;entryDy=0;entryPerimeter=0;" edge="1" parent="1" source="31v7jMnxDXzGjl-zNSFE-23" target="31v7jMnxDXzGjl-zNSFE-25">
          <mxGeometry relative="1" as="geometry" />
        </mxCell>
        <mxCell id="31v7jMnxDXzGjl-zNSFE-27" value="" style="endArrow=classic;html=1;rounded=0;entryX=0;entryY=0.5;entryDx=0;entryDy=0;" edge="1" parent="1" target="31v7jMnxDXzGjl-zNSFE-21">
          <mxGeometry width="50" height="50" relative="1" as="geometry">
            <mxPoint x="-1000" y="735" as="sourcePoint" />
            <mxPoint x="-950" y="685" as="targetPoint" />
            <Array as="points">
              <mxPoint x="-1000" y="755" />
              <mxPoint x="-1160" y="755" />
              <mxPoint x="-1160" y="525" />
            </Array>
          </mxGeometry>
        </mxCell>
        <mxCell id="31v7jMnxDXzGjl-zNSFE-29" style="edgeStyle=orthogonalEdgeStyle;rounded=0;orthogonalLoop=1;jettySize=auto;html=1;exitX=0.5;exitY=1;exitDx=0;exitDy=0;entryX=0.5;entryY=0;entryDx=0;entryDy=0;" edge="1" parent="1" source="31v7jMnxDXzGjl-zNSFE-30" target="31v7jMnxDXzGjl-zNSFE-32">
          <mxGeometry relative="1" as="geometry" />
        </mxCell>
        <mxCell id="31v7jMnxDXzGjl-zNSFE-30" value="for (int i = row, j = col; i &amp;gt;= 0 &amp;amp;&amp;amp; j &amp;lt; N; --i, ++j)" style="shape=hexagon;perimeter=hexagonPerimeter2;whiteSpace=wrap;html=1;fixedSize=1;" vertex="1" parent="1">
          <mxGeometry x="-1060" y="790" width="120" height="80" as="geometry" />
        </mxCell>
        <mxCell id="31v7jMnxDXzGjl-zNSFE-31" style="edgeStyle=orthogonalEdgeStyle;rounded=0;orthogonalLoop=1;jettySize=auto;html=1;exitX=1;exitY=0.5;exitDx=0;exitDy=0;" edge="1" parent="1" source="31v7jMnxDXzGjl-zNSFE-32">
          <mxGeometry relative="1" as="geometry">
            <mxPoint x="-1000" y="1040" as="targetPoint" />
            <Array as="points">
              <mxPoint x="-940" y="915" />
              <mxPoint x="-940" y="1040" />
            </Array>
          </mxGeometry>
        </mxCell>
        <mxCell id="31v7jMnxDXzGjl-zNSFE-32" value="if (board[i][j] == 1)" style="rhombus;whiteSpace=wrap;html=1;" vertex="1" parent="1">
          <mxGeometry x="-1040" y="890" width="80" height="50" as="geometry" />
        </mxCell>
        <mxCell id="31v7jMnxDXzGjl-zNSFE-33" style="edgeStyle=orthogonalEdgeStyle;rounded=0;orthogonalLoop=1;jettySize=auto;html=1;exitX=0.5;exitY=1;exitDx=0;exitDy=0;exitPerimeter=0;" edge="1" parent="1" source="31v7jMnxDXzGjl-zNSFE-34">
          <mxGeometry relative="1" as="geometry">
            <mxPoint x="-1000" y="1040" as="targetPoint" />
            <Array as="points">
              <mxPoint x="-1090" y="1040" />
            </Array>
          </mxGeometry>
        </mxCell>
        <mxCell id="31v7jMnxDXzGjl-zNSFE-34" value="return false;" style="strokeWidth=2;html=1;shape=mxgraph.flowchart.start_1;whiteSpace=wrap;" vertex="1" parent="1">
          <mxGeometry x="-1140" y="954" width="100" height="60" as="geometry" />
        </mxCell>
        <mxCell id="31v7jMnxDXzGjl-zNSFE-35" style="edgeStyle=orthogonalEdgeStyle;rounded=0;orthogonalLoop=1;jettySize=auto;html=1;exitX=0;exitY=0.5;exitDx=0;exitDy=0;entryX=0.5;entryY=0;entryDx=0;entryDy=0;entryPerimeter=0;" edge="1" parent="1" source="31v7jMnxDXzGjl-zNSFE-32" target="31v7jMnxDXzGjl-zNSFE-34">
          <mxGeometry relative="1" as="geometry" />
        </mxCell>
        <mxCell id="31v7jMnxDXzGjl-zNSFE-36" value="" style="endArrow=classic;html=1;rounded=0;entryX=0;entryY=0.5;entryDx=0;entryDy=0;" edge="1" parent="1" target="31v7jMnxDXzGjl-zNSFE-30">
          <mxGeometry width="50" height="50" relative="1" as="geometry">
            <mxPoint x="-1000" y="1040" as="sourcePoint" />
            <mxPoint x="-950" y="990" as="targetPoint" />
            <Array as="points">
              <mxPoint x="-1000" y="1060" />
              <mxPoint x="-1160" y="1060" />
              <mxPoint x="-1160" y="830" />
            </Array>
          </mxGeometry>
        </mxCell>
        <mxCell id="31v7jMnxDXzGjl-zNSFE-38" value="return true;" style="strokeWidth=2;html=1;shape=mxgraph.flowchart.start_1;whiteSpace=wrap;" vertex="1" parent="1">
          <mxGeometry x="-1060" y="1110" width="100" height="60" as="geometry" />
        </mxCell>
        <mxCell id="31v7jMnxDXzGjl-zNSFE-39" style="edgeStyle=orthogonalEdgeStyle;rounded=0;orthogonalLoop=1;jettySize=auto;html=1;exitX=1;exitY=0.5;exitDx=0;exitDy=0;entryX=0.5;entryY=0;entryDx=0;entryDy=0;entryPerimeter=0;" edge="1" parent="1" source="31v7jMnxDXzGjl-zNSFE-30" target="31v7jMnxDXzGjl-zNSFE-38">
          <mxGeometry relative="1" as="geometry">
            <Array as="points">
              <mxPoint x="-920" y="830" />
              <mxPoint x="-920" y="1090" />
              <mxPoint x="-1010" y="1090" />
            </Array>
          </mxGeometry>
        </mxCell>
      </root>
    </mxGraphModel>
  </diagram>
</mxfile>
